<?xml version="1.0" encoding="UTF-8" standalone="no"?>
<svg
   xmlns:dc="http://purl.org/dc/elements/1.1/"
   xmlns:cc="http://creativecommons.org/ns#"
   xmlns:rdf="http://www.w3.org/1999/02/22-rdf-syntax-ns#"
   xmlns:svg="http://www.w3.org/2000/svg"
   xmlns="http://www.w3.org/2000/svg"
   xmlns:sodipodi="http://sodipodi.sourceforge.net/DTD/sodipodi-0.dtd"
   xmlns:inkscape="http://www.inkscape.org/namespaces/inkscape"
   version="1.1"
   id="Layer_1"
   x="0px"
   y="0px"
   viewBox="0 0 683.7173 524.2134"
   enable-background="new 0 0 683.7173 524.2134"
   xml:space="preserve"
   inkscape:version="0.48.4 r9939"
   sodipodi:docname="ipad-bg.svg"
   width="100%"
   height="100%"><metadata
   id="metadata3517"><rdf:RDF><cc:Work
       rdf:about=""><dc:format>image/svg+xml</dc:format><dc:type
         rdf:resource="http://purl.org/dc/dcmitype/StillImage" /><dc:title></dc:title></cc:Work></rdf:RDF></metadata><defs
   id="defs3515" /><sodipodi:namedview
   pagecolor="#ffffff"
   bordercolor="#666666"
   borderopacity="1"
   objecttolerance="10"
   gridtolerance="10"
   guidetolerance="10"
   inkscape:pageopacity="0"
   inkscape:pageshadow="2"
   inkscape:window-width="1680"
   inkscape:window-height="988"
   id="namedview3513"
   showgrid="false"
   inkscape:zoom="1.5241885"
   inkscape:cx="341.85864"
   inkscape:cy="262.10669"
   inkscape:window-x="-8"
   inkscape:window-y="-8"
   inkscape:window-maximized="1"
   inkscape:current-layer="Layer_1" />
<rect
   x="2.6577"
   y="377.5786"
   fill="none"
   width="1.9282"
   height="18.5088"
   id="rect3253" />
<rect
   x="0.0005"
   y="354.6567"
   fill="none"
   width="2.7432"
   height="41.6113"
   id="rect3255" />
<rect
   x="679.1226"
   y="377.5786"
   fill="none"
   width="1.9277"
   height="18.5078"
   id="rect3257" />
<rect
   x="330.4771"
   y="519.5396"
   fill="none"
   width="18.5088"
   height="1.9307"
   id="rect3259" />
<linearGradient
   id="SVGID_1_"
   gradientUnits="userSpaceOnUse"
   x1="79.7524"
   y1="262.106"
   x2="603.9653"
   y2="262.106"
   gradientTransform="matrix(0 -1 1 0 79.7529 603.9658)">
	<stop
   offset="0"
   style="stop-color:#CDCCCC"
   id="stop3262" />
	<stop
   offset="0.4444"
   style="stop-color:#8F8F8F"
   id="stop3264" />
	<stop
   offset="1"
   style="stop-color:#7A7A7B"
   id="stop3266" />
</linearGradient>
<path
   fill="url(#SVGID_1_)"
   d="M0.0005,21.5913L0,502.6167c0,11.876,9.7192,21.5967,21.5942,21.5967h640.5273  c11.8779,0,21.5957-9.7197,21.5957-21.5957l-0.002-481.0269C683.7153,9.7178,673.9995,0,662.1196,0L21.5947,0.0005  C9.7197,0.0005,0.0005,9.7183,0.0005,21.5913z M661.77,1.6982c11.3086,0,20.5625,9.2568,20.5625,20.5654v479.6343  c0,11.3125-9.2529,20.5654-20.5625,20.5654l-639.8218-0.001c-11.3101,0-20.5659-9.2529-20.5659-20.5645L1.3828,22.2642  c0-11.3086,9.2549-20.5654,20.5659-20.5654L661.77,1.6982z"
   id="path3268" />
<path
   fill="#373636"
   d="M3.0547,22.9604L3.0542,500.6187c0,11.3105,9.2549,20.5654,20.564,20.5654h636.478  c11.3105,0,20.5664-9.2549,20.5664-20.5645V22.6426c0-11.3135-8.8691-19.6631-20.1787-19.6631L23.0269,2.98  C11.3975,2.98,3.0547,11.6499,3.0547,22.9604z M660.5903,4.665c10.1826,0,18.5098,8.3271,18.5098,18.5098l0.0029,477.7974  c0,10.1787-8.3301,18.5068-18.5098,18.5068H23.124c-10.1792,0-18.5093-8.3281-18.5093-18.5078L4.6152,23.1753  c0-10.1826,8.3301-18.5098,18.5093-18.5098L660.5903,4.665z"
   id="path3270" />
<linearGradient
   id="SVGID_2_"
   gradientUnits="userSpaceOnUse"
   x1="79.7534"
   y1="262.1045"
   x2="603.9665"
   y2="262.1045"
   gradientTransform="matrix(0 -1 1 0 79.7529 603.9658)">
	<stop
   offset="0"
   style="stop-color:#CDCCCC"
   id="stop3273" />
	<stop
   offset="0.4444"
   style="stop-color:#8F8F8F"
   id="stop3275" />
	<stop
   offset="1"
   style="stop-color:#7A7A7B"
   id="stop3277" />
</linearGradient>
<path
   fill="url(#SVGID_2_)"
   d="M1.3828,22.2642L1.3823,501.8979c0,11.3115,9.2559,20.5645,20.5659,20.5645l639.8218,0.001  c11.3096,0,20.5625-9.2529,20.5625-20.5654V22.2637c0-11.3086-9.2539-20.5654-20.5625-20.5654L21.9487,1.6987  C10.6377,1.6987,1.3828,10.9556,1.3828,22.2642z M661.4351,2.7383c10.748,0,19.5391,8.7939,19.5391,19.5391l0.002,479.6099  c0,10.7461-8.792,19.5361-19.5381,19.5361l-639.1582-0.001c-10.7461,0-19.5361-8.7891-19.5361-19.5361V22.2778  c0-10.7451,8.7905-19.5391,19.5366-19.5391L661.4351,2.7383z"
   id="path3279" />
<linearGradient
   id="SVGID_3_"
   gradientUnits="userSpaceOnUse"
   x1="81.5024"
   y1="262.1045"
   x2="602.2681"
   y2="262.1045"
   gradientTransform="matrix(0 -1 1 0 79.7529 603.9658)">
	<stop
   offset="0"
   style="stop-color:#8E8E8E;stop-opacity:0"
   id="stop3282" />
	<stop
   offset="1"
   style="stop-color:#FFFFFF;stop-opacity:0.26"
   id="stop3284" />
</linearGradient>
<path
   fill="url(#SVGID_3_)"
   d="M1.3828,22.2642L1.3823,501.8979c0,11.3115,9.2559,20.5645,20.5659,20.5645l639.8218,0.001  c11.3096,0,20.5625-9.2529,20.5625-20.5654V22.2637c0-11.3086-9.2539-20.5654-20.5625-20.5654L21.9487,1.6987  C10.6377,1.6987,1.3828,10.9556,1.3828,22.2642z M661.4351,2.7383c10.748,0,19.5391,8.7939,19.5391,19.5391l0.002,479.6099  c0,10.7461-8.792,19.5361-19.5381,19.5361l-639.1582-0.001c-10.7461,0-19.5361-8.7891-19.5361-19.5361V22.2778  c0-10.7451,8.7905-19.5391,19.5366-19.5391L661.4351,2.7383z"
   id="path3286" />
<path
   fill="#373636"
   d="M2.7437,22.2778v479.6084c0,10.7471,8.79,19.5361,19.5361,19.5361l639.1582,0.001  c10.7461,0,19.5381-8.79,19.5381-19.5361l-0.002-479.6099c0-10.7451-8.791-19.5391-19.5391-19.5391L22.2803,2.7388  C11.5342,2.7388,2.7437,11.5327,2.7437,22.2778z M660.4839,2.9795c11.3096,0,20.1787,8.3496,20.1787,19.6631v477.9771  c0,11.3096-9.2559,20.5645-20.5664,20.5645H23.6182c-11.3091,0-20.564-9.2549-20.564-20.5654L3.0547,22.9604  c0-11.3105,8.3428-19.9805,19.9722-19.9805L660.4839,2.9795z"
   id="path3288" />
<linearGradient
   id="SVGID_4_"
   gradientUnits="userSpaceOnUse"
   x1="81.502"
   y1="262.1069"
   x2="602.2664"
   y2="262.1069"
   gradientTransform="matrix(0 -1 1 0 79.7529 603.9658)">
	<stop
   offset="0"
   style="stop-color:#8E8E8E;stop-opacity:0"
   id="stop3291" />
	<stop
   offset="1"
   style="stop-color:#FFFFFF;stop-opacity:0.26"
   id="stop3293" />
</linearGradient>
<path
   fill="url(#SVGID_4_)"
   d="M2.7437,22.2778v479.6084c0,10.7471,8.79,19.5361,19.5361,19.5361l639.1582,0.001  c10.7461,0,19.5381-8.79,19.5381-19.5361l-0.002-479.6099c0-10.7451-8.791-19.5391-19.5391-19.5391L22.2803,2.7388  C11.5342,2.7388,2.7437,11.5327,2.7437,22.2778z M660.4839,2.9795c11.3096,0,20.1787,8.3496,20.1787,19.6631v477.9771  c0,11.3096-9.2559,20.5645-20.5664,20.5645H23.6182c-11.3091,0-20.564-9.2549-20.564-20.5654L3.0547,22.9604  c0-11.3105,8.3428-19.9805,19.9722-19.9805L660.4839,2.9795z"
   id="path3295" />
<path
   fill="#010101"
   d="M4.6152,23.1753L4.6147,500.9712c0,10.1797,8.3301,18.5078,18.5093,18.5078h637.4692  c10.1797,0,18.5098-8.3281,18.5098-18.5068l-0.0029-477.7974c0-10.1826-8.3271-18.5098-18.5098-18.5098L23.1245,4.6655  C12.9453,4.6655,4.6152,12.9927,4.6152,23.1753z M618.0806,52.5137h0.7158l0.002,418.9741H63.1611v-1.4199V52.5142L618.0806,52.5137  z"
   id="path3297" />
<path
   fill="#303030"
   d="M16.3091,262.9272c0.1021,0,0.1831,0.083,0.1831,0.1826c0,0.1045-0.0811,0.1885-0.1831,0.1885  c-0.1011,0-0.1826-0.084-0.1826-0.1885C16.1265,263.0103,16.208,262.9272,16.3091,262.9272z"
   id="path3299" />
<path
   fill="#303030"
   d="M17.0005,262.9272c0.1016,0,0.1816,0.083,0.1816,0.1826c0,0.1045-0.0801,0.1885-0.1816,0.1885  c-0.0986,0-0.1846-0.084-0.1846-0.1885C16.8159,263.0103,16.9019,262.9272,17.0005,262.9272z"
   id="path3301" />
<path
   fill="#303030"
   d="M17.6938,262.9272c0.1025,0,0.1807,0.083,0.1807,0.1826c0,0.1045-0.0781,0.1885-0.1807,0.1885  c-0.103,0-0.1841-0.084-0.1841-0.1885C17.5098,263.0103,17.5908,262.9272,17.6938,262.9272z"
   id="path3303" />
<path
   fill="#303030"
   d="M18.3853,262.9272c0.0996,0,0.1826,0.083,0.1826,0.1826c0,0.1045-0.083,0.1885-0.1826,0.1885  c-0.1011,0-0.1821-0.084-0.1821-0.1885C18.2031,263.0103,18.2842,262.9272,18.3853,262.9272z"
   id="path3305" />
<path
   fill="#303030"
   d="M15.6182,262.9272c0.0996,0,0.1846,0.083,0.1846,0.1826c0,0.1045-0.085,0.1885-0.1846,0.1885  c-0.1025,0-0.1821-0.084-0.1821-0.1885C15.436,263.0103,15.5156,262.9272,15.6182,262.9272z"
   id="path3307" />
<path
   fill="#303030"
   d="M14.9268,262.9272c0.1001,0,0.1816,0.083,0.1816,0.1826c0,0.1045-0.0815,0.1885-0.1816,0.1885  c-0.1025,0-0.1826-0.084-0.1826-0.1885C14.7441,263.0103,14.8242,262.9272,14.9268,262.9272z"
   id="path3309" />
<path
   fill="#303030"
   d="M14.2324,262.9272c0.103,0,0.1831,0.083,0.1831,0.1826c0,0.1045-0.0801,0.1885-0.1831,0.1885  c-0.1006,0-0.1826-0.084-0.1826-0.1885C14.0498,263.0103,14.1318,262.9272,14.2324,262.9272z"
   id="path3311" />
<path
   fill="#303030"
   d="M16.667,262.3032c0.0972,0,0.1841,0.085,0.1841,0.1826c0,0.1055-0.0869,0.1826-0.1841,0.1826  c-0.1025,0-0.1836-0.0771-0.1836-0.1826C16.4834,262.3882,16.5645,262.3032,16.667,262.3032z"
   id="path3313" />
<path
   fill="#303030"
   d="M17.499,262.228c0.103,0,0.1851,0.082,0.1851,0.1816c0,0.1055-0.082,0.1826-0.1851,0.1826  c-0.0996,0-0.1816-0.0771-0.1816-0.1826C17.3174,262.3101,17.3994,262.228,17.499,262.228z"
   id="path3315" />
<path
   fill="#303030"
   d="M18.252,262.2251c0.1006,0,0.1816,0.082,0.1816,0.1826c0,0.1045-0.0811,0.1836-0.1816,0.1836  s-0.1826-0.0791-0.1826-0.1836C18.0693,262.3071,18.1514,262.2251,18.252,262.2251z"
   id="path3317" />
<circle
   fill="#303030"
   cx="15.9526"
   cy="262.522"
   r="0.1836"
   id="circle3319" />
<path
   fill="#303030"
   d="M15.1167,262.228c0.1016,0,0.1846,0.082,0.1846,0.1816c0,0.1055-0.083,0.1826-0.1846,0.1826  c-0.1011,0-0.1821-0.0771-0.1821-0.1826C14.9346,262.3101,15.0156,262.228,15.1167,262.228z"
   id="path3321" />
<path
   fill="#303030"
   d="M14.3354,262.228c0.0967,0,0.1816,0.082,0.1816,0.1816c0,0.1055-0.085,0.1826-0.1816,0.1826  c-0.103,0-0.186-0.0771-0.186-0.1826C14.1494,262.3101,14.2324,262.228,14.3354,262.228z"
   id="path3323" />
<circle
   fill="#303030"
   cx="16.312"
   cy="261.7217"
   r="0.1802"
   id="circle3325" />
<path
   fill="#303030"
   d="M16.6689,260.9009c0.1001,0,0.1802,0.0771,0.1802,0.1826c0,0.0977-0.0801,0.1777-0.1802,0.1777  c-0.1016,0-0.1846-0.0801-0.1846-0.1777C16.4844,260.978,16.5674,260.9009,16.6689,260.9009z"
   id="path3327" />
<path
   fill="#303030"
   d="M15.9512,260.9009c0.1021,0,0.1831,0.0771,0.1831,0.1826c0,0.0977-0.0811,0.1777-0.1831,0.1777  c-0.1016,0-0.1826-0.0801-0.1826-0.1777C15.7686,260.978,15.8496,260.9009,15.9512,260.9009z"
   id="path3329" />
<ellipse
   fill="#303030"
   cx="15.2515"
   cy="261.3203"
   rx="0.1846"
   ry="0.1792"
   id="ellipse3331" />
<path
   fill="#303030"
   d="M17.3438,261.1372c0.1016,0,0.1831,0.083,0.1831,0.1865c0,0.0986-0.0815,0.1787-0.1831,0.1787  c-0.1025,0-0.1826-0.0801-0.1826-0.1787C17.1611,261.2202,17.2412,261.1372,17.3438,261.1372z"
   id="path3333" />
<circle
   fill="#303030"
   cx="17.0005"
   cy="261.9033"
   r="0.1812"
   id="circle3335" />
<path
   fill="#303030"
   d="M17.9204,261.5972c0.0972,0,0.1826,0.0801,0.1826,0.1826c0,0.0996-0.0854,0.1797-0.1826,0.1797  c-0.1025,0-0.1826-0.0801-0.1826-0.1797C17.7378,261.6772,17.8179,261.5972,17.9204,261.5972z"
   id="path3337" />
<path
   fill="#303030"
   d="M15.6055,261.7222c0.0996,0,0.1816,0.0811,0.1816,0.1836c0,0.0986-0.082,0.1787-0.1816,0.1787  c-0.104,0-0.1807-0.0801-0.1807-0.1787C15.4248,261.8032,15.5015,261.7222,15.6055,261.7222z"
   id="path3339" />
<path
   fill="#303030"
   d="M14.6978,261.5972c0.1021,0,0.1851,0.0801,0.1851,0.1826c0,0.0996-0.083,0.1797-0.1851,0.1797  c-0.0977,0-0.1807-0.0801-0.1807-0.1797C14.5171,261.6772,14.6001,261.5972,14.6978,261.5972z"
   id="path3341" />
<circle
   fill="#303030"
   cx="15.9731"
   cy="263.7026"
   r="0.1816"
   id="circle3343" />
<circle
   fill="#303030"
   cx="15.1167"
   cy="263.7866"
   r="0.1836"
   id="circle3345" />
<path
   fill="#303030"
   d="M14.3716,263.9976c-0.1025,0-0.1841-0.0859-0.1841-0.1836c0-0.0996,0.0815-0.1797,0.1841-0.1797  c0.0986,0,0.1802,0.0801,0.1802,0.1797C14.5518,263.9116,14.4702,263.9976,14.3716,263.9976z"
   id="path3347" />
<path
   fill="#303030"
   d="M16.6348,263.9155c-0.0996,0-0.1816-0.0859-0.1816-0.1836c0-0.1016,0.082-0.1836,0.1816-0.1836  c0.1016,0,0.1812,0.082,0.1812,0.1836C16.8159,263.8296,16.7363,263.9155,16.6348,263.9155z"
   id="path3349" />
<circle
   fill="#303030"
   cx="17.502"
   cy="263.7866"
   r="0.1836"
   id="circle3351" />
<circle
   fill="#303030"
   cx="18.252"
   cy="263.8159"
   r="0.1816"
   id="circle3353" />
<path
   fill="#303030"
   d="M16.3062,264.7036c-0.1016,0-0.1816-0.0762-0.1816-0.1777s0.0801-0.1846,0.1816-0.1846  c0.1001,0,0.1831,0.083,0.1831,0.1846S16.4062,264.7036,16.3062,264.7036z"
   id="path3355" />
<circle
   fill="#303030"
   cx="15.9512"
   cy="265.1533"
   r="0.1821"
   id="circle3357" />
<path
   fill="#303030"
   d="M16.6689,265.3354c-0.1016,0-0.1846-0.0801-0.1846-0.1797c0-0.1016,0.083-0.1846,0.1846-0.1846  c0.0952,0,0.1802,0.083,0.1802,0.1846C16.8491,265.2554,16.7642,265.3354,16.6689,265.3354z"
   id="path3359" />
<path
   fill="#303030"
   d="M17.3428,265.1011c-0.1001,0-0.1816-0.0859-0.1816-0.1885c0-0.0977,0.0815-0.1797,0.1816-0.1797  c0.0996,0,0.1841,0.082,0.1841,0.1797C17.5269,265.0151,17.4424,265.1011,17.3428,265.1011z"
   id="path3361" />
<circle
   fill="#303030"
   cx="15.2749"
   cy="264.9155"
   r="0.1855"
   id="circle3363" />
<path
   fill="#303030"
   d="M15.6035,264.522c-0.1001,0-0.1807-0.0762-0.1807-0.1807c0-0.0996,0.0806-0.1826,0.1807-0.1826  c0.1025,0,0.1846,0.083,0.1846,0.1826C15.7881,264.4458,15.7061,264.522,15.6035,264.522z"
   id="path3365" />
<circle
   fill="#303030"
   cx="14.7002"
   cy="264.4541"
   r="0.1831"
   id="circle3367" />
<path
   fill="#303030"
   d="M17.0005,264.522c-0.0996,0-0.1846-0.0762-0.1846-0.1807c0-0.0996,0.085-0.1826,0.1846-0.1826  c0.1011,0,0.1816,0.083,0.1816,0.1826C17.1821,264.4458,17.1016,264.522,17.0005,264.522z"
   id="path3369" />
<path
   fill="#303030"
   d="M17.877,264.6372c-0.104,0-0.1831-0.0801-0.1831-0.1816s0.0791-0.1846,0.1831-0.1846  c0.0981,0,0.1797,0.083,0.1797,0.1846S17.9751,264.6372,17.877,264.6372z"
   id="path3371" />
<polygon
   fill="none"
   points="63.1611,470.0679 63.1611,471.4878 600.7739,471.4878 413.2417,52.5137 63.1611,52.5142 "
   id="polygon3373" />
<linearGradient
   id="SVGID_5_"
   gradientUnits="userSpaceOnUse"
   x1="456.8022"
   y1="301.4946"
   x2="744.0952"
   y2="301.4946"
   gradientTransform="matrix(1 0 0 1 -64.9922 -48.6758)">
	<stop
   offset="0"
   style="stop-color:#FFFFFF"
   id="stop3376" />
	<stop
   offset="0.681"
   style="stop-color:#FFFFFF;stop-opacity:0"
   id="stop3378" />
</linearGradient>
<path
   opacity="0.3"
   fill="url(#SVGID_5_)"
   d="M660.5933,4.665h-0.0029c10.1826,0,18.5098,8.3271,18.5098,18.5098l0.0029,477.7974  V23.1748C679.103,12.9951,670.7739,4.665,660.5933,4.665z"
   id="path3380" />
<linearGradient
   id="SVGID_6_"
   gradientUnits="userSpaceOnUse"
   x1="456.8169"
   y1="310.6763"
   x2="744.0946"
   y2="310.6763"
   gradientTransform="matrix(1 0 0 1 -64.9922 -48.6758)">
	<stop
   offset="0"
   style="stop-color:#FFFFFF"
   id="stop3383" />
	<stop
   offset="0.681"
   style="stop-color:#FFFFFF;stop-opacity:0"
   id="stop3385" />
</linearGradient>
<polygon
   opacity="0.3"
   fill="url(#SVGID_6_)"
   points="618.7983,471.4878 618.7964,52.5137 618.0806,52.5137 413.2417,52.5137   600.7739,471.4878 "
   id="polygon3387" />
<path
   fill="#010101"
   d="M660.5903,4.665H391.8247l21.417,47.8486h204.8389h0.7158l0.002,418.9741h-18.0244l21.4814,47.9912h38.3379  c10.1797,0,18.5098-8.3281,18.5098-18.5068l-0.0029-477.7974C679.1001,12.9922,670.7729,4.665,660.5903,4.665z"
   id="path3389" />
<linearGradient
   id="SVGID_7_"
   gradientUnits="userSpaceOnUse"
   x1="456.8169"
   y1="310.7476"
   x2="744.0952"
   y2="310.7476"
   gradientTransform="matrix(1 0 0 1 -64.9922 -48.6758)">
	<stop
   offset="0"
   style="stop-color:#FFFFFF"
   id="stop3392" />
	<stop
   offset="0.681"
   style="stop-color:#FFFFFF;stop-opacity:0"
   id="stop3394" />
</linearGradient>
<path
   opacity="0.3"
   fill="url(#SVGID_7_)"
   d="M660.5903,4.665H391.8247l21.417,47.8486h204.8389h0.7158l0.002,418.9741h-18.0244  l21.4814,47.9912h38.3379c10.1797,0,18.5098-8.3281,18.5098-18.5068l-0.0029-477.7974  C679.1001,12.9922,670.7729,4.665,660.5903,4.665z"
   id="path3396" />
<g
   id="g3398">
	
		<radialGradient
   id="SVGID_8_"
   cx="745.1558"
   cy="240.7402"
   r="65.3369"
   gradientTransform="matrix(0.7667 0 0 0.7667 79.6605 61.0536)"
   gradientUnits="userSpaceOnUse">
		<stop
   offset="0.2632"
   style="stop-color:#010101"
   id="stop3401" />
		<stop
   offset="0.7579"
   style="stop-color:#4A4C50"
   id="stop3403" />
	</radialGradient>
	<path
   fill="url(#SVGID_8_)"
   d="M666.0562,262.1099c0,8.4268-6.8281,15.2549-15.2598,15.2549   c-8.4199,0-15.252-6.8281-15.252-15.2549c0-8.4263,6.832-15.2603,15.252-15.2603   C659.228,246.8496,666.0562,253.6836,666.0562,262.1099z"
   id="path3405" />
	<g
   opacity="0.6"
   id="g3407">
		<path
   fill="#FFFFFF"
   d="M653.6646,267.478h-5.7314c-1.3779,0-2.4941-1.126-2.4941-2.502v-5.7329    c0-1.3809,1.1162-2.501,2.4941-2.501h5.7314c1.3828,0,2.501,1.1201,2.501,2.501v5.7329    C656.1655,266.3521,655.0474,267.478,653.6646,267.478L653.6646,267.478z M647.9331,257.7432c-0.8291,0-1.5,0.6738-1.5,1.5v5.7329    c0,0.8252,0.6709,1.4971,1.5,1.4971h5.7314c0.8311,0,1.498-0.6719,1.498-1.4971v-5.7329c0-0.8262-0.667-1.5-1.498-1.5H647.9331    L647.9331,257.7432z"
   id="path3409" />
	</g>
</g>
<g
   id="g3411">
	
		<radialGradient
   id="SVGID_9_"
   cx="-65.4688"
   cy="267.7222"
   r="10.8938"
   gradientTransform="matrix(0.7667 -0.0046 0.0039 0.6524 78.6188 91.342)"
   gradientUnits="userSpaceOnUse">
		<stop
   offset="0.4667"
   style="stop-color:#3E3D3D"
   id="stop3414" />
		<stop
   offset="0.7944"
   style="stop-color:#1C1C1C"
   id="stop3416" />
	</radialGradient>
	<path
   fill="url(#SVGID_9_)"
   d="M35.8354,263.1196c0,2.6592-2.1567,4.8164-4.8149,4.8164c-2.6611,0-4.8218-2.1572-4.8218-4.8164   c0-2.6631,2.1606-4.8203,4.8218-4.8203C33.6787,258.2993,35.8354,260.4565,35.8354,263.1196z"
   id="path3418" />
	<g
   id="g3420">
		
			<radialGradient
   id="SVGID_10_"
   cx="-64.2793"
   cy="264.9634"
   r="4.6805"
   gradientTransform="matrix(0.7667 0 0 0.5268 79.6605 124.6294)"
   gradientUnits="userSpaceOnUse">
			<stop
   offset="0.1688"
   style="stop-color:#878787"
   id="stop3423" />
			<stop
   offset="0.4117"
   style="stop-color:#5A5A5A"
   id="stop3425" />
			<stop
   offset="0.6865"
   style="stop-color:#303131"
   id="stop3427" />
			<stop
   offset="0.8831"
   style="stop-color:#131413"
   id="stop3429" />
			<stop
   offset="0.9804"
   style="stop-color:#010101"
   id="stop3431" />
		</radialGradient>
		<path
   opacity="0.5"
   fill="url(#SVGID_10_)"
   d="M33.3408,263.1196c0,1.2812-1.0415,2.3193-2.3223,2.3193    c-1.2817,0-2.3218-1.0381-2.3218-2.3193c0-1.2852,1.04-2.3213,2.3218-2.3213C32.2993,260.7983,33.3408,261.8345,33.3408,263.1196z    "
   id="path3433" />
		<g
   id="g3435">
			
				<linearGradient
   id="SVGID_11_"
   gradientUnits="userSpaceOnUse"
   x1="138.082"
   y1="34.6973"
   x2="139.7448"
   y2="36.36"
   gradientTransform="matrix(0 1 -1 0 66.5518 124.2007)">
				<stop
   offset="0"
   style="stop-color:#223B75"
   id="stop3438" />
				<stop
   offset="0.0278"
   style="stop-color:#22386E"
   id="stop3440" />
				<stop
   offset="0.1257"
   style="stop-color:#202D56"
   id="stop3442" />
				<stop
   offset="0.2191"
   style="stop-color:#1B2243"
   id="stop3444" />
				<stop
   offset="0.3054"
   style="stop-color:#161A36"
   id="stop3446" />
				<stop
   offset="0.3823"
   style="stop-color:#12132E"
   id="stop3448" />
				<stop
   offset="0.4417"
   style="stop-color:#10112B"
   id="stop3450" />
				<stop
   offset="0.61"
   style="stop-color:#151535"
   id="stop3452" />
				<stop
   offset="0.9486"
   style="stop-color:#1B1A50"
   id="stop3454" />
				<stop
   offset="1"
   style="stop-color:#1C1A54"
   id="stop3456" />
			</linearGradient>
			<path
   opacity="0.69"
   fill="url(#SVGID_11_)"
   d="M31.0156,264.3149c-0.6577,0-1.1948-0.5342-1.1948-1.1953     c0-0.6621,0.5371-1.1982,1.1948-1.1982c0.6641,0,1.1987,0.5361,1.1987,1.1982     C32.2144,263.7808,31.6797,264.3149,31.0156,264.3149z"
   id="path3458" />
			<path
   opacity="0.19"
   fill="#FFFFFF"
   d="M31.0156,264.2837c-0.6421,0-1.1631-0.5205-1.1631-1.1641     c0-0.6455,0.521-1.167,1.1631-1.167c0.6455,0,1.1675,0.5215,1.1675,1.167C32.1831,263.7632,31.6611,264.2837,31.0156,264.2837z      M31.7627,263.1196c0-0.4121-0.3335-0.7451-0.7471-0.7451c-0.4097,0-0.7427,0.333-0.7427,0.7451     c0,0.4111,0.333,0.7432,0.7427,0.7432C31.4292,263.8628,31.7627,263.5308,31.7627,263.1196z"
   id="path3460" />
			
				<linearGradient
   id="SVGID_12_"
   gradientUnits="userSpaceOnUse"
   x1="139.3193"
   y1="35.1338"
   x2="138.5193"
   y2="35.9338"
   gradientTransform="matrix(0 1 -1 0 66.5518 124.2007)">
				<stop
   offset="0"
   style="stop-color:#3D64AF"
   id="stop3463" />
				<stop
   offset="0.0696"
   style="stop-color:#374F87"
   id="stop3465" />
				<stop
   offset="0.1576"
   style="stop-color:#2D3A63"
   id="stop3467" />
				<stop
   offset="0.2415"
   style="stop-color:#222949"
   id="stop3469" />
				<stop
   offset="0.3192"
   style="stop-color:#191D38"
   id="stop3471" />
				<stop
   offset="0.3883"
   style="stop-color:#13142E"
   id="stop3473" />
				<stop
   offset="0.4417"
   style="stop-color:#10112B"
   id="stop3475" />
				<stop
   offset="0.5228"
   style="stop-color:#161935"
   id="stop3477" />
				<stop
   offset="0.6868"
   style="stop-color:#1F2851"
   id="stop3479" />
				<stop
   offset="0.9169"
   style="stop-color:#223C80"
   id="stop3481" />
				<stop
   offset="1"
   style="stop-color:#1E4495"
   id="stop3483" />
			</linearGradient>
			<path
   opacity="0.5"
   fill="url(#SVGID_12_)"
   d="M31.0156,263.564c-0.2441,0-0.4419-0.1992-0.4419-0.4443     c0-0.2461,0.1978-0.4443,0.4419-0.4443c0.2485,0,0.4458,0.1982,0.4458,0.4443C31.4614,263.3647,31.2642,263.564,31.0156,263.564z     "
   id="path3485" />
			
				<linearGradient
   id="SVGID_13_"
   gradientUnits="userSpaceOnUse"
   x1="137.8569"
   y1="35.7007"
   x2="138.6369"
   y2="35.2848"
   gradientTransform="matrix(0 1 -1 0 66.5518 124.2007)">
				<stop
   offset="0"
   style="stop-color:#FFFFFF;stop-opacity:0.75"
   id="stop3488" />
				<stop
   offset="1"
   style="stop-color:#FFFFFF;stop-opacity:0"
   id="stop3490" />
			</linearGradient>
			<path
   opacity="0.25"
   fill="url(#SVGID_13_)"
   d="M31.0156,262.6753c-0.439,0-0.7949-0.1357-0.7949-0.3047     c0-0.166,0.356-0.3027,0.7949-0.3027c0.4429,0,0.7988,0.1348,0.7988,0.3027C31.8164,262.5396,31.4565,262.6753,31.0156,262.6753z     "
   id="path3492" />
			
				<linearGradient
   id="SVGID_14_"
   gradientUnits="userSpaceOnUse"
   x1="874.5435"
   y1="-669.9126"
   x2="873.9556"
   y2="-669.9126"
   gradientTransform="matrix(0 1 -1 0 -638.8945 -610.2471)">
				<stop
   offset="0"
   style="stop-color:#FFFFFF;stop-opacity:0.75"
   id="stop3495" />
				<stop
   offset="1"
   style="stop-color:#FFFFFF;stop-opacity:0"
   id="stop3497" />
			</linearGradient>
			<path
   opacity="0.25"
   fill="url(#SVGID_14_)"
   d="M31.0156,264.0112c-0.438,0-0.7949-0.1221-0.7954-0.2754     c0-0.1523,0.3574-0.2812,0.7954-0.2803c0.4429,0,0.7988,0.1279,0.7988,0.2803     C31.8145,263.8892,31.4585,264.0112,31.0156,264.0112z"
   id="path3499" />
		</g>
	</g>
</g>
<g
   id="g3501">
</g>
<g
   id="g3503">
</g>
<g
   id="g3505">
</g>
<g
   id="g3507">
</g>
<g
   id="g3509">
</g>
<g
   id="g3511">
</g>
<path
   style="fill:#f2f2f2;stroke:none"
   d="m 63.677826,261.97547 0,-209.291697 277.524734,0 277.52473,0 0,209.291697 0,209.2917 -277.52473,0 -277.524734,0 0,-209.2917 z"
   id="path3519"
   inkscape:connector-curvature="0" /><path
   style="fill:#f9f9f9"
   d="m 63.677826,261.97547 0,-209.291697 277.524734,0 277.52473,0 0,209.291697 0,209.2917 -277.52473,0 -277.524734,0 0,-209.2917 z"
   id="path3521"
   inkscape:connector-curvature="0" /><path
   style="fill:#f9f9f9"
   d="m 63.677826,261.97547 0,-209.291697 277.524734,0 277.52473,0 0,209.291697 0,209.2917 -277.52473,0 -277.524734,0 0,-209.2917 z"
   id="path3523"
   inkscape:connector-curvature="0" /><path
   style="fill:#ffffff;fill-opacity:1;stroke:#000000;stroke-width:3.0639255;stroke-miterlimit:10;stroke-opacity:1;stroke-dasharray:none"
   d="m 63.677824,261.90988 0,-208.963651 277.524726,0 277.52473,0 0,208.963651 0,208.96366 -277.52473,0 -277.524726,0 0,-208.96366 z"
   id="path3273"
   inkscape:connector-curvature="0" /></svg>